<?xml version="1.0" standalone="no"?>
<!DOCTYPE svg PUBLIC "-//W3C//DTD SVG 20010904//EN"
 "http://www.w3.org/TR/2001/REC-SVG-20010904/DTD/svg10.dtd">
<svg version="1.0" xmlns="http://www.w3.org/2000/svg"
 width="700.000000pt" height="700.000000pt" viewBox="0 0 700.000000 700.000000"
 preserveAspectRatio="xMidYMid meet">
<metadata>
Created by potrace 1.11, written by Peter Selinger 2001-2013
</metadata>
<g transform="translate(0.000000,700.000000) scale(0.100000,-0.100000)"
fill="#000000" stroke="none">
<path d="M3435 6991 c-17 -8 -55 -44 -138 -132 -36 -40 -111 -148 -165 -239
-145 -245 -240 -550 -267 -865 -11 -124 -6 -363 10 -470 2 -16 7 -52 10 -80
10 -84 62 -285 100 -390 77 -215 221 -457 352 -594 20 -21 23 -34 23 -115 1
-199 1 -715 1 -773 l-1 -61 -316 -316 c-174 -174 -319 -316 -323 -316 -3 0 -6
122 -6 271 l0 272 55 26 c84 39 177 138 227 241 52 105 74 196 78 325 7 165
-36 335 -111 448 -72 109 -197 197 -299 213 -77 11 -86 11 -154 -4 -189 -42
-338 -226 -385 -475 -19 -98 -13 -264 13 -362 45 -173 160 -331 279 -385 28
-13 53 -26 53 -29 1 -3 2 -183 3 -399 l1 -394 -407 -408 -408 -408 0 277 0
278 53 24 c132 61 259 249 294 434 10 51 10 256 1 315 -64 404 -436 613 -713
400 -82 -63 -141 -144 -183 -250 -22 -55 -26 -68 -43 -150 -36 -174 2 -406 89
-548 63 -102 146 -178 229 -211 l32 -13 0 -398 1 -398 -575 -575 c-361 -362
-577 -585 -581 -601 -22 -90 55 -171 145 -151 22 5 117 93 339 315 l310 308
400 1 400 1 26 -54 c107 -219 404 -343 721 -302 237 30 443 183 499 370 46
154 -21 334 -165 442 -77 58 -170 103 -245 118 -10 3 -39 9 -64 15 -66 15
-282 8 -360 -13 -169 -45 -326 -160 -383 -280 l-27 -56 -281 0 -281 0 324 323
323 324 461 -1 460 -1 53 -45 c250 -214 553 -353 926 -425 134 -26 530 -40
625 -21 14 2 52 7 85 11 33 4 110 18 170 32 328 73 630 225 855 432 136 124
127 175 -60 331 -258 214 -593 354 -980 412 -94 14 -443 17 -558 6 -139 -14
-420 -79 -507 -118 -11 -5 -63 -27 -115 -49 -156 -67 -360 -198 -469 -302 -23
-22 -25 -22 -352 -22 -181 0 -332 3 -335 6 -4 4 361 374 810 823 l818 817 386
1 c213 1 394 0 403 -2 9 -2 27 -27 40 -55 33 -72 137 -173 224 -219 112 -58
209 -81 350 -82 139 -1 199 6 278 33 178 62 312 181 363 324 23 63 20 180 -6
249 -98 264 -438 406 -800 335 -86 -17 -202 -71 -275 -127 -59 -47 -89 -82
-132 -158 l-32 -57 -276 0 c-151 -1 -275 1 -275 3 0 8 723 726 733 728 7 1 46
4 88 8 432 35 878 255 1225 602 212 212 366 442 487 724 38 89 87 262 102 360
4 25 9 54 11 65 3 11 7 72 11 137 5 107 4 119 -16 151 -32 52 -63 61 -199 54
-114 -6 -160 -11 -212 -23 -14 -3 -36 -8 -50 -10 -51 -9 -204 -56 -278 -85
-268 -106 -511 -268 -732 -489 -288 -287 -476 -610 -565 -969 -13 -53 -27
-121 -30 -151 -4 -30 -9 -63 -11 -73 -2 -10 -4 -43 -5 -73 l-2 -55 -515 -515
c-282 -282 -515 -514 -517 -514 -2 0 -3 151 -3 337 l0 336 25 26 c40 42 157
201 197 268 241 403 334 938 251 1443 -51 309 -157 576 -323 815 -31 44 -70
96 -88 115 -18 19 -50 54 -71 77 -52 57 -105 75 -158 54z m139 -416 c68 -101
94 -149 138 -255 59 -139 105 -295 124 -414 3 -21 7 -47 9 -57 29 -147 24
-439 -11 -636 -48 -277 -179 -582 -330 -766 l-23 -27 -44 57 c-54 71 -123 186
-165 275 -62 133 -131 359 -147 482 -3 27 -8 52 -10 55 -6 11 -17 215 -16 296
6 410 135 806 349 1074 l35 43 19 -23 c10 -13 43 -60 72 -104z m2913 -392
c-20 -214 -126 -490 -274 -713 -293 -439 -728 -740 -1199 -829 -113 -22 -129
-21 -129 5 3 103 57 305 121 452 99 227 231 420 414 602 277 277 590 450 931
515 68 13 128 24 133 24 4 1 6 -25 3 -56z m-3810 -2006 c44 -23 110 -119 133
-195 81 -261 -37 -572 -218 -572 -80 0 -173 92 -209 207 -24 79 -28 104 -27
198 2 171 68 312 171 366 56 29 86 29 150 -4z m2733 -433 c152 -44 240 -126
240 -224 0 -127 -180 -237 -389 -238 -174 -1 -338 73 -386 173 -54 115 40 236
225 289 30 8 69 17 85 19 57 6 170 -3 225 -19z m-3801 -619 c97 -53 159 -181
168 -345 17 -294 -176 -520 -335 -393 -164 132 -195 454 -62 654 62 94 151
127 229 84z m2886 -1120 c17 -3 68 -12 115 -21 227 -41 454 -131 635 -252 128
-86 130 -89 116 -106 -44 -53 -273 -184 -421 -242 -231 -89 -426 -126 -689
-129 -137 -1 -185 2 -311 20 -115 16 -321 69 -405 105 -160 68 -375 190 -420
240 -17 19 -17 21 10 42 215 173 533 300 858 343 100 13 447 13 512 0z m-1880
-1030 c166 -43 273 -141 262 -240 -12 -103 -136 -194 -299 -220 -334 -53 -617
172 -439 351 102 104 311 151 476 109z"/>
</g>
</svg>
